<svg width="660" height="660" viewBox="0 0 660 660" fill="none" xmlns="http://www.w3.org/2000/svg">
<path d="M61.3874 193.3C61.3654 211.69 71.8796 228.466 88.4355 236.455L263.754 321.065V338.743L88.0527 423.788C71.5614 431.77 61.0765 448.476 61.0545 466.805L61 512.075L230.417 414.511C295.736 376.895 295.681 282.833 230.319 245.294L61.4412 148.307L61.3874 193.3Z" fill="white"/>
<path d="M577.572 169.623C561.711 160.463 542.014 161.17 526.849 171.443L365.63 280.648L350.282 271.809L364.287 77.596C365.606 59.309 356.365 41.876 340.493 32.7104L301.166 10V205.128C301.166 280.359 382.861 327.344 448.135 289.651L616.781 192.265L577.572 169.623Z" fill="white"/>
<path d="M340.084 627.522C356.031 618.364 365.318 600.87 363.974 582.524L349.782 388.859L365.13 380.02L526.918 489.338C542.044 499.559 561.666 500.275 577.496 491.184L617 468.497L447.583 370.933C382.264 333.318 300.623 380.396 300.712 455.627L300.944 650L340.084 627.522Z" fill="white"/>
</svg>
